<svg width="616.000000" height="623.000000" viewBox="0 0 616 623" fill="none" xmlns="http://www.w3.org/2000/svg" xmlns:xlink="http://www.w3.org/1999/xlink">
	<desc>
			Created with Pixso.
	</desc>
	<defs>
		<filter id="filter_3_207_dd" x="0.000000" y="0.000000" width="616.000000" height="623.000000" filterUnits="userSpaceOnUse" color-interpolation-filters="sRGB">
			<feFlood flood-opacity="0" result="BackgroundImageFix"/>
			<feColorMatrix in="SourceAlpha" type="matrix" values="0 0 0 0 0 0 0 0 0 0 0 0 0 0 0 0 0 0 127 0" result="hardAlpha"/>
			<feOffset dx="0" dy="4"/>
			<feGaussianBlur stdDeviation="1.33333"/>
			<feComposite in2="hardAlpha" operator="out" k2="-1" k3="1"/>
			<feColorMatrix type="matrix" values="0 0 0 0 0 0 0 0 0 0 0 0 0 0 0 0 0 0 0.25 0"/>
			<feBlend mode="normal" in2="BackgroundImageFix" result="effect_dropShadow_1"/>
			<feBlend mode="normal" in="SourceGraphic" in2="effect_dropShadow_1" result="shape"/>
		</filter>
		<clipPath id="clip3_207">
			<rect rx="0.000000" width="606.697998" height="613.697998" transform="translate(4.651000 0.651000)" fill="white" fill-opacity="0"/>
		</clipPath>
	</defs>
	<g filter="url(#filter_3_207_dd)">
		<rect rx="0.000000" width="606.697998" height="613.697998" transform="translate(4.651000 0.651000)" fill="#FFFFFF" fill-opacity="0"/>
		<g clip-path="url(#clip3_207)">
			<path d="M209.5 42.73C211.27 41.65 213.17 40.83 215.15 40.27L216.31 34.62L225.75 34.45L227.11 40.06C229.11 40.56 231.03 41.32 232.83 42.33L237.6 39.17L244.4 45.81L241.44 50.73C242.5 52.52 243.32 54.44 243.88 56.44L249.46 57.61L249.63 67.15L244.08 68.52C243.59 70.54 242.83 72.49 241.83 74.31L244.96 79.15L238.39 86.01L233.53 83.02C231.76 84.09 229.87 84.92 227.89 85.48L226.67 91.13L217.23 91.3L215.87 85.69C213.87 85.19 211.95 84.42 210.16 83.41L205.38 86.57L198.56 79.94L201.51 75.03C200.45 73.24 199.63 71.31 199.08 69.31L193.5 68.08L193.33 58.53L198.87 57.15C199.36 55.13 200.12 53.18 201.12 51.36L198 46.53L204.64 39.74L209.5 42.73ZM214.53 55.44C213.14 56.9 212.21 58.74 211.85 60.74C211.49 62.73 211.73 64.79 212.53 66.65C213.32 68.5 214.65 70.08 216.33 71.18C218.02 72.28 219.99 72.84 221.99 72.81C223.99 72.77 225.94 72.14 227.59 70.98C229.23 69.83 230.5 68.21 231.24 66.32C231.98 64.44 232.14 62.38 231.72 60.4C231.29 58.41 230.3 56.61 228.86 55.2C227.9 54.26 226.77 53.52 225.53 53.02C224.28 52.52 222.96 52.28 221.62 52.3C220.29 52.32 218.97 52.61 217.74 53.15C216.52 53.69 215.41 54.47 214.49 55.44L214.53 55.44Z" fill="#E0E0E0" fill-opacity="1.000000" fill-rule="nonzero"/>
			<path d="M211.69 359.5C212.71 358.88 213.8 358.4 214.95 358.07L215.62 354.81L221.06 354.72L221.84 357.95C223 358.23 224.11 358.67 225.15 359.25L227.9 357.43L231.81 361.26L230.17 364.08C230.79 365.11 231.26 366.21 231.58 367.37L234.8 368.05L234.9 373.56L231.7 374.35C231.42 375.51 230.99 376.64 230.41 377.69L232.21 380.47L228.43 384.43L225.62 382.71C224.6 383.33 223.51 383.81 222.36 384.15L221.66 387.45L216.21 387.54L215.43 384.31C214.28 384.03 213.17 383.59 212.13 383.01L209.38 384.83L205.46 381L207.16 378.16C206.55 377.13 206.07 376.02 205.74 374.86L202.53 374.19L202.43 368.68L205.63 367.89C205.91 366.72 206.35 365.59 206.92 364.54L205.12 361.76L208.9 357.8L211.71 359.52L211.69 359.5ZM214.59 366.88C213.79 367.72 213.25 368.79 213.04 369.94C212.83 371.09 212.97 372.28 213.43 373.35C213.89 374.43 214.66 375.34 215.63 375.97C216.6 376.6 217.74 376.93 218.9 376.91C220.06 376.89 221.18 376.52 222.13 375.85C223.08 375.19 223.82 374.25 224.24 373.16C224.66 372.07 224.76 370.88 224.51 369.73C224.26 368.59 223.69 367.54 222.85 366.73C222.3 366.19 221.65 365.76 220.94 365.47C220.23 365.19 219.47 365.04 218.7 365.05C217.94 365.06 217.18 365.22 216.47 365.53C215.77 365.83 215.13 366.28 214.59 366.83L214.59 366.88Z" fill="#E0E0E0" fill-opacity="1.000000" fill-rule="nonzero"/>
			<path d="M93.1 73.09C93.8 72.67 94.55 72.34 95.33 72.11L95.79 69.88L99.5 69.88L100.06 72.02C100.85 72.23 101.61 72.53 102.32 72.92L104.19 71.69L106.87 74.3L105.65 76.24C106.07 76.95 106.4 77.7 106.63 78.49L108.83 78.96L108.83 82.65L106.64 83.19C106.45 83.99 106.15 84.76 105.76 85.48L106.98 87.37L104.4 90.08L102.48 88.85C101.78 89.28 101.04 89.61 100.25 89.83L99.79 92.06L96.14 92.06L95.61 89.85C94.82 89.65 94.06 89.36 93.35 88.96L91.47 90.19L88.8 87.57L90.01 85.64C89.59 84.94 89.27 84.18 89.04 83.39L86.84 82.92L86.78 79.23L88.96 78.69C89.16 77.89 89.46 77.12 89.84 76.4L88.63 74.51L91.21 71.8L93.13 73.03L93.1 73.09ZM95.09 78.1C94.54 78.67 94.17 79.4 94.03 80.18C93.89 80.97 93.98 81.78 94.3 82.51C94.61 83.24 95.13 83.86 95.8 84.29C96.46 84.73 97.24 84.95 98.02 84.94C98.81 84.92 99.58 84.67 100.23 84.22C100.88 83.76 101.38 83.12 101.67 82.38C101.96 81.64 102.02 80.83 101.85 80.05C101.69 79.27 101.3 78.56 100.73 78C100.35 77.63 99.91 77.34 99.42 77.15C98.93 76.95 98.41 76.86 97.89 76.87C97.36 76.88 96.85 76.99 96.36 77.2C95.88 77.41 95.45 77.72 95.09 78.1Z" fill="#E0E0E0" fill-opacity="1.000000" fill-rule="nonzero"/>
			<path d="M274.63 65.19C276 64.35 277.48 63.7 279.02 63.25L279.92 58.86L287.21 58.73L288.27 63.09C289.83 63.48 291.33 64.08 292.73 64.87L296.38 62.41L301.77 67.65L299.48 71.43C300.32 72.82 300.96 74.32 301.39 75.89L305.75 76.8L305.87 84.18L301.56 85.25C301.17 86.83 300.57 88.36 299.79 89.79L302.22 93.55L297.12 98.89L293.33 96.56C291.96 97.4 290.48 98.05 288.94 98.49L288.03 102.89L280.73 103.02L279.67 98.65C278.1 98.28 276.58 97.69 275.16 96.89L271.51 99.35L266.23 94.2L268.52 90.36C267.7 88.97 267.05 87.47 266.62 85.91L262.27 85L262.14 77.62L266.46 76.55C266.84 74.98 267.43 73.46 268.21 72.05L265.78 68.28L270.87 62.95L274.63 65.19ZM278.54 75.03C277.46 76.16 276.74 77.59 276.46 79.15C276.19 80.7 276.37 82.3 276.99 83.74C277.62 85.19 278.65 86.41 279.96 87.26C281.27 88.12 282.8 88.56 284.36 88.53C285.92 88.5 287.44 88 288.72 87.1C290 86.2 290.98 84.94 291.55 83.47C292.12 82 292.25 80.4 291.91 78.86C291.58 77.32 290.81 75.91 289.68 74.82C288.93 74.09 288.05 73.53 287.08 73.16C286.12 72.78 285.08 72.6 284.05 72.63C283.01 72.66 282 72.89 281.05 73.32C280.11 73.75 279.25 74.36 278.54 75.12L278.54 75.03Z" fill="#EBEBEB" fill-opacity="1.000000" fill-rule="nonzero"/>
			<path d="M468.76 248.58C470.52 247.51 472.42 246.68 474.39 246.12L475.61 240.47L485.03 240.3L486.39 245.91C488.4 246.4 490.32 247.17 492.12 248.18L496.88 245.02L503.66 251.65L500.72 256.57C501.77 258.36 502.59 260.28 503.15 262.28L508.73 263.51L508.9 273.04L503.36 274.42C502.87 276.44 502.11 278.39 501.11 280.2L504.23 285.02L497.69 291.81L492.83 288.82C491.06 289.89 489.17 290.72 487.19 291.28L485.97 296.93L476.55 297.09L475.18 291.51C473.19 291.01 471.27 290.24 469.47 289.23L464.7 292.39L457.92 285.76L460.87 280.84C459.81 279.06 458.99 277.15 458.44 275.15L452.86 273.92L452.7 264.45L458.23 263.07C458.73 261.04 459.48 259.1 460.48 257.27L457.36 252.47L463.91 245.6L468.77 248.59L468.76 248.58ZM473.78 261.28C472.4 262.74 471.47 264.58 471.11 266.57C470.76 268.56 470.99 270.62 471.79 272.47C472.59 274.33 473.92 275.9 475.6 277C477.28 278.09 479.25 278.65 481.25 278.62C483.25 278.58 485.19 277.95 486.84 276.79C488.48 275.64 489.75 274.02 490.48 272.14C491.22 270.25 491.38 268.19 490.96 266.22C490.53 264.24 489.54 262.43 488.1 261.03C487.14 260.09 486.01 259.35 484.78 258.86C483.54 258.37 482.22 258.13 480.89 258.15C479.56 258.17 478.25 258.46 477.03 259C475.81 259.54 474.71 260.31 473.78 261.28Z" fill="#E0E0E0" fill-opacity="1.000000" fill-rule="nonzero"/>
			<path d="M535.39 63C535.39 59.02 534.5 55.1 532.76 51.54C531.03 47.97 528.5 44.86 525.38 42.45C522.27 40.03 518.64 38.37 514.78 37.61C510.93 36.84 506.95 36.98 503.16 38.02C499.37 39.06 495.87 40.97 492.93 43.6C489.99 46.24 487.69 49.52 486.2 53.2C484.72 56.88 484.1 60.85 484.38 64.82C484.67 68.78 485.85 72.62 487.84 76.05L487.91 76.14C488.89 77.82 490.12 79.01 491.36 80.76L506.2 100.63C506.63 101.2 507.19 101.66 507.82 101.97C508.45 102.28 509.15 102.45 509.85 102.45C510.56 102.45 511.25 102.28 511.88 101.97C512.52 101.66 513.07 101.2 513.5 100.63L528.09 81.09C529.42 79.52 530.65 77.88 531.8 76.17L531.86 76.1C534.18 72.13 535.39 67.6 535.39 63ZM509.85 74.24C507.63 74.24 505.46 73.57 503.61 72.32C501.77 71.07 500.33 69.29 499.48 67.21C498.63 65.14 498.41 62.85 498.85 60.65C499.28 58.44 500.35 56.42 501.92 54.83C503.49 53.24 505.5 52.16 507.68 51.72C509.86 51.29 512.11 51.51 514.17 52.37C516.22 53.23 517.97 54.69 519.21 56.56C520.44 58.43 521.1 60.63 521.1 62.87C521.1 64.37 520.81 65.85 520.24 67.22C519.68 68.6 518.85 69.86 517.8 70.91C516.76 71.97 515.52 72.81 514.15 73.38C512.79 73.95 511.33 74.24 509.85 74.24Z" fill="#E0E0E0" fill-opacity="1.000000" fill-rule="nonzero"/>
			<path d="M85.8 434.74C88.38 432.92 90.39 430.37 91.56 427.41C92.72 424.45 93.01 421.21 92.37 418.08C90.71 409.24 82.65 403.32 74.51 404.91C66.38 406.5 61.01 414.94 62.68 423.79C63.22 426.96 64.68 429.89 66.88 432.22C69.07 434.55 71.9 436.16 75 436.87C52.84 444.84 58.72 469.73 58.72 469.73L112.74 459.35C112.74 459.35 109.09 433.74 85.8 434.74Z" fill="#EBEBEB" fill-opacity="1.000000" fill-rule="nonzero"/>
			<path d="M151.25 540.86L140.19 538.08C140.19 538.08 137.89 547.53 128.14 545.28C126.25 544.88 124.54 543.9 123.23 542.47C121.92 541.04 121.09 539.23 120.84 537.3C120.61 535.68 120.76 534.03 121.29 532.48C121.81 530.93 122.68 529.53 123.84 528.39C126.5 525.71 131.34 523.88 138.44 527.09L144.63 501.71L133.62 498.97L129.97 513.84C129.97 513.84 113.57 514.02 109.39 531.22C105.37 547.68 119.03 555.13 125.28 556.68C130.07 557.87 146.62 560.76 151.25 540.86Z" fill="#EBEBEB" fill-opacity="1.000000" fill-rule="nonzero"/>
			<path d="M145.91 496.5L134.75 493.72L137.32 483.17L148.48 485.95L145.91 496.5Z" fill="#EBEBEB" fill-opacity="1.000000" fill-rule="evenodd"/>
			<path d="M573.23 579.2C573.23 579.37 454.86 579.52 308.9 579.52C162.93 579.52 44.55 579.33 44.55 579.2C44.55 579.08 162.88 578.88 308.9 578.88C454.91 578.88 573.23 579.02 573.23 579.2Z" fill="#000000" fill-opacity="1.000000" fill-rule="nonzero"/>
			<path d="M74.52 269.61L99.93 269.61L97.69 281.14L51.93 281.14L53.74 271.97L81.28 250.14C88.09 244.63 90.17 241.41 90.17 237.39C90.17 233.36 87.15 230.66 81.28 230.66C78.81 230.69 76.38 231.29 74.15 232.39C71.93 233.49 69.98 235.08 68.44 237.04L59.03 230.14C63.9 223.41 72.93 218.96 83.35 218.96C96.13 218.96 104.5 225.86 104.5 235.38C104.5 242.63 101.23 248.74 90.6 257.04L74.52 269.61Z" fill="#263238" fill-opacity="1.000000" fill-rule="nonzero"/>
			<path d="M160.45 268.31L150.52 268.31L148.02 281.14L134.38 281.14L136.97 268.31L104.41 268.31L106.22 258.79L141.8 220.01L157.08 220.01L123.93 256.77L139.81 256.77L142.06 245.33L155.1 245.33L152.85 256.77L162.78 256.77L160.45 268.31Z" fill="#263238" fill-opacity="1.000000" fill-rule="nonzero"/>
			<path d="M200.33 207.61L212.94 207.61L168.57 289.87L156 289.87L200.33 207.61Z" fill="#263238" fill-opacity="1.000000" fill-rule="nonzero"/>
			<path d="M257.92 220.01L256.11 229.18L223.82 281.14L208.28 281.14L239.27 231.53L219.68 231.53L217.68 241.49L205.26 241.49L209.5 220.01L257.92 220.01Z" fill="#263238" fill-opacity="1.000000" fill-rule="nonzero"/>
			<path d="M46.28 329.36L49.81 322.57C52.97 324.61 56.63 325.71 60.37 325.74C63.82 325.74 65.82 324.64 65.82 322.9C65.82 318.58 50.4 320.96 50.4 310.88C50.4 303.95 56.25 299.41 65.63 299.41C69.62 299.28 73.56 300.23 77.05 302.17L73.79 308.91C71.18 307.28 68.16 306.43 65.09 306.45C61.37 306.45 59.37 307.83 59.37 309.57C59.37 313.98 74.79 311.46 74.79 321.36C74.79 328.23 68.81 332.77 59.52 332.77C54.07 332.8 49.13 331.33 46.28 329.36Z" fill="#263238" fill-opacity="1.000000" fill-rule="nonzero"/>
			<path d="M90.78 307.08L89.75 312.49L103.84 312.49L102.49 319.27L88.39 319.27L87.24 325.15L103.89 325.15L102.43 332.16L76.96 332.16L83.35 300.12L108.19 300.12L106.78 307.14L90.78 307.08Z" fill="#263238" fill-opacity="1.000000" fill-rule="nonzero"/>
			<path d="M131.35 322.53L136.75 332.16L127.36 332.16L122.64 323.63L118.12 323.63L116.44 332.16L107.46 332.16L113.8 300.12L127.36 300.12C135.47 300.12 140.14 303.93 140.14 310.35C140.2 313.07 139.38 315.75 137.78 317.95C136.2 320.15 133.93 321.76 131.35 322.53ZM126.09 307.21L121.38 307.21L119.52 316.61L124.87 316.61C128.82 316.61 131.13 314.69 131.13 311.16C131.08 308.45 129.17 307.21 126.09 307.21Z" fill="#263238" fill-opacity="1.000000" fill-rule="nonzero"/>
			<path d="M179.48 300.12L159.64 332.16L150.8 332.16L143.53 300.12L152.74 300.12L157.27 321.03L170.23 300.12L179.48 300.12Z" fill="#263238" fill-opacity="1.000000" fill-rule="nonzero"/>
			<path d="M181.37 300.12L190.36 300.12L183.96 332.16L174.99 332.16L181.37 300.12Z" fill="#263238" fill-opacity="1.000000" fill-rule="nonzero"/>
			<path d="M191.76 318.68C191.76 307.53 199.87 299.41 211.65 299.41C217.5 299.41 222.27 301.58 224.53 305.47L218.01 310.69C217.28 309.5 216.25 308.53 215.02 307.88C213.79 307.23 212.42 306.93 211.03 307C204.87 307 200.78 311.81 200.78 318.13C200.78 322.45 203.69 325.34 208.54 325.34C210.02 325.35 211.48 325.02 212.82 324.38C214.16 323.75 215.35 322.81 216.28 321.65L221.59 326.92C218.01 331.28 213.34 332.88 207.68 332.88C197.97 332.8 191.76 327.06 191.76 318.68Z" fill="#263238" fill-opacity="1.000000" fill-rule="nonzero"/>
			<path d="M237.63 307.08L236.58 312.49L250.67 312.49L249.36 319.27L235.22 319.27L234.09 325.15L250.72 325.15L249.27 332.16L223.85 332.16L230.17 300.12L255.01 300.12L253.62 307.14L237.63 307.08Z" fill="#263238" fill-opacity="1.000000" fill-rule="nonzero"/>
			<path d="M80.79 201.91L63.07 201.91C63.07 176.97 73.05 151.48 90.45 131.92C108.77 111.37 132.54 100.06 157.33 100.06C208 100.06 243.4 137.47 243.4 191.08L225.72 191.08C225.72 147.37 198.25 118.01 157.37 118.01C117.29 117.98 80.79 157.98 80.79 201.91Z" fill="#5ED8FF" fill-opacity="1.000000" fill-rule="nonzero"/>
			<path d="M90.5 196.93C93.33 196.93 95.63 197.21 95.62 197.47C95.61 197.73 93.32 197.93 90.5 197.93C87.68 197.93 85.37 197.69 85.37 197.39C85.37 197.08 87.68 196.88 90.5 196.93Z" fill="#263238" fill-opacity="1.000000" fill-rule="nonzero"/>
			<path d="M102.73 157.64C105.17 159.22 106.81 160.83 106.54 161.26C106.27 161.69 104.11 160.82 101.68 159.33C99.24 157.84 97.63 156.21 97.88 155.71C98.14 155.22 100.36 156.08 102.73 157.64Z" fill="#263238" fill-opacity="1.000000" fill-rule="nonzero"/>
			<path d="M133.38 130.57C134.53 133.19 135.1 135.49 134.59 135.69C134.08 135.89 132.78 133.98 131.54 131.41C130.3 128.84 129.73 126.49 130.33 126.29C130.92 126.1 132.23 127.92 133.38 130.57Z" fill="#263238" fill-opacity="1.000000" fill-rule="nonzero"/>
			<path d="M173.75 127.35C173.04 130.13 172.08 132.27 171.61 132.17C171.13 132.07 171.23 129.71 171.84 126.89C172.45 124.08 173.4 121.97 173.98 122.09C174.56 122.2 174.45 124.58 173.75 127.35Z" fill="#263238" fill-opacity="1.000000" fill-rule="nonzero"/>
			<path d="M206.73 150.79C204.37 152.37 202.24 153.33 201.96 152.93C201.68 152.54 203.32 150.84 205.61 149.16C207.89 147.47 210.03 146.53 210.37 147.02C210.72 147.51 209.09 149.21 206.73 150.79Z" fill="#263238" fill-opacity="1.000000" fill-rule="nonzero"/>
			<path d="M217.59 189.42C214.76 189.42 212.47 189.19 212.47 188.95C212.47 188.7 214.75 188.46 217.59 188.42C220.42 188.38 222.71 188.59 222.72 188.89C222.73 189.18 220.44 189.42 217.59 189.42Z" fill="#263238" fill-opacity="1.000000" fill-rule="nonzero"/>
			<path d="M152.53 194.75C151.65 194.76 150.79 194.46 150.1 193.9L120.32 170.53C119.49 169.88 118.96 168.93 118.83 167.87C118.7 166.82 118.99 165.76 119.64 164.93C120.28 164.09 121.23 163.55 122.27 163.42C123.31 163.29 124.36 163.58 125.18 164.24L152.35 185.54L189.86 150.7C190.63 149.98 191.64 149.59 192.69 149.63C193.73 149.67 194.72 150.13 195.43 150.9C196.14 151.68 196.52 152.71 196.48 153.76C196.44 154.82 195.99 155.82 195.22 156.54L155.25 193.68C154.51 194.38 153.54 194.76 152.53 194.75Z" fill="#5ED8FF" fill-opacity="1.000000" fill-rule="nonzero"/>
			<path d="M138.58 73.71L172.73 73.71C173.26 73.71 173.69 74.14 173.69 74.68L173.69 87.19C173.69 87.73 173.26 88.16 172.73 88.16L138.58 88.16C138.05 88.16 137.62 87.73 137.62 87.19L137.62 74.68C137.62 74.14 138.05 73.71 138.58 73.71Z" fill="#5ED8FF" fill-opacity="1.000000" fill-rule="evenodd"/>
			<path d="M146.33 80.94L164.97 80.94L164.97 98.04L146.33 98.04L146.33 80.94Z" fill="#5ED8FF" fill-opacity="1.000000" fill-rule="evenodd"/>
			<path d="M64.7 135.48L78.71 117.94C79.25 117.26 80.24 117.15 80.91 117.7L90.49 125.52C91.16 126.07 91.27 127.07 90.72 127.75L76.72 145.29C76.17 145.98 75.19 146.08 74.51 145.53L64.94 137.71C64.26 137.16 64.16 136.16 64.7 135.48Z" fill="#5ED8FF" fill-opacity="1.000000" fill-rule="evenodd"/>
			<path d="M172.73 88.16C172.73 88.37 165.08 88.53 155.7 88.53C146.33 88.53 138.68 88.37 138.68 88.16C138.68 87.95 146.32 87.79 155.7 87.79C165.09 87.79 172.73 87.96 172.73 88.16Z" fill="#263238" fill-opacity="1.000000" fill-rule="nonzero"/>
			<path d="M78.39 142.28C78.2 142.5 75.62 140.51 72.43 138.09C69.25 135.66 66.66 133.7 66.81 133.45C66.97 133.2 69.83 134.8 73.05 137.25C76.27 139.7 78.57 142.07 78.39 142.28Z" fill="#263238" fill-opacity="1.000000" fill-rule="nonzero"/>
			<path d="M81.36 137.87C81.16 138.09 78.58 136.1 75.4 133.67C72.21 131.25 69.61 129.28 69.77 129.03C69.93 128.79 72.8 130.39 76.02 132.85C79.24 135.31 81.54 137.66 81.36 137.87Z" fill="#263238" fill-opacity="1.000000" fill-rule="nonzero"/>
			<path d="M84.99 134.16C84.81 134.39 82.23 132.39 79.05 129.97C75.86 127.55 73.31 125.58 73.42 125.33C73.53 125.09 76.44 126.69 79.65 129.14C82.86 131.61 85.19 133.95 84.99 134.16Z" fill="#263238" fill-opacity="1.000000" fill-rule="nonzero"/>
			<path d="M88.52 129.75C88.34 129.97 85.75 127.98 82.56 125.55C79.37 123.13 76.78 121.16 76.96 120.92C77.13 120.67 79.98 122.27 83.19 124.73C86.4 127.19 88.7 129.54 88.52 129.75Z" fill="#263238" fill-opacity="1.000000" fill-rule="nonzero"/>
			<path d="M226.29 106.87L241.37 123.48C241.95 124.13 241.91 125.13 241.27 125.73L232.21 134.14C231.57 134.74 230.58 134.69 229.99 134.05L214.92 117.44C214.33 116.79 214.37 115.79 215.01 115.2L224.08 106.78C224.72 106.19 225.71 106.23 226.29 106.87Z" fill="#5ED8FF" fill-opacity="1.000000" fill-rule="evenodd"/>
			<path d="M217.61 119.58C217.43 119.35 219.75 117.12 222.6 114.24C225.44 111.36 227.74 109.11 227.96 109.32C228.18 109.53 226.2 112.15 223.31 115C220.43 117.85 217.78 119.79 217.61 119.58Z" fill="#263238" fill-opacity="1.000000" fill-rule="nonzero"/>
			<path d="M221.49 123.19C221.29 122.97 223.63 120.73 226.46 117.85C229.3 114.98 231.62 112.72 231.84 112.93C232.06 113.14 230.06 115.76 227.19 118.62C224.32 121.47 221.66 123.4 221.49 123.19Z" fill="#263238" fill-opacity="1.000000" fill-rule="nonzero"/>
			<path d="M224.57 127.39C224.37 127.17 226.71 124.93 229.54 122.05C232.37 119.17 234.7 116.92 234.91 117.13C235.13 117.34 233.14 119.95 230.26 122.8C227.37 125.65 224.74 127.6 224.57 127.39Z" fill="#263238" fill-opacity="1.000000" fill-rule="nonzero"/>
			<path d="M228.36 131.61C228.17 131.38 230.5 129.14 233.33 126.27C236.17 123.39 238.49 121.14 238.71 121.35C238.93 121.56 236.93 124.18 234.05 127.03C231.17 129.88 228.53 131.78 228.36 131.61Z" fill="#263238" fill-opacity="1.000000" fill-rule="nonzero"/>
			<path d="M142.41 88.15C142.13 88.15 141.9 84.95 141.9 81.03C141.9 77.1 142.13 73.89 142.41 73.89C142.69 73.89 142.94 77.09 142.94 81.03C142.94 84.96 142.7 88.15 142.41 88.15Z" fill="#263238" fill-opacity="1.000000" fill-rule="nonzero"/>
			<path d="M149.1 88.15C148.82 88.15 148.59 84.95 148.59 81.03C148.59 77.1 148.82 73.89 149.1 73.89C149.38 73.89 149.61 77.09 149.61 81.03C149.61 84.96 149.38 88.15 149.1 88.15Z" fill="#263238" fill-opacity="1.000000" fill-rule="nonzero"/>
			<path d="M155.78 88.15C155.5 88.15 155.27 84.95 155.27 81.03C155.27 77.1 155.5 73.89 155.78 73.89C156.06 73.89 156.29 77.09 156.29 81.03C156.29 84.96 156.07 88.15 155.78 88.15Z" fill="#263238" fill-opacity="1.000000" fill-rule="nonzero"/>
			<path d="M162.46 88.15C162.17 88.15 161.95 84.95 161.95 81.03C161.95 77.1 162.17 73.89 162.46 73.89C162.76 73.89 162.98 77.09 162.98 81.03C162.98 84.96 162.74 88.15 162.46 88.15Z" fill="#263238" fill-opacity="1.000000" fill-rule="nonzero"/>
			<path d="M169.14 88.15C168.86 88.15 168.63 84.95 168.63 81.03C168.63 77.1 168.86 73.89 169.14 73.89C169.42 73.89 169.65 77.09 169.65 81.03C169.65 84.96 169.37 88.15 169.14 88.15Z" fill="#263238" fill-opacity="1.000000" fill-rule="nonzero"/>
			<path d="M159.76 183.02C163.24 186.54 163.24 192.26 159.76 195.78C156.27 199.31 150.62 199.31 147.14 195.78C143.65 192.26 143.65 186.54 147.14 183.02C150.62 179.49 156.27 179.49 159.76 183.02Z" fill="#5ED8FF" fill-opacity="1.000000" fill-rule="evenodd"/>
			<path d="M162.37 189.42C162.28 189.42 162.29 188.62 161.92 187.25C161.38 185.35 160.23 183.68 158.65 182.5C157.38 181.55 155.88 180.98 154.31 180.84C152.73 180.7 151.16 181.01 149.75 181.72C148.34 182.44 147.15 183.54 146.33 184.9C145.5 186.26 145.06 187.82 145.06 189.42C145.06 191.01 145.5 192.58 146.33 193.93C147.15 195.29 148.34 196.39 149.75 197.11C151.16 197.82 152.73 198.13 154.31 197.99C155.88 197.86 157.38 197.28 158.65 196.33C160.22 195.15 161.37 193.48 161.92 191.58C162.29 190.21 162.28 189.42 162.37 189.42C162.45 189.42 162.37 189.61 162.37 189.99C162.39 190.56 162.33 191.12 162.2 191.67C161.76 193.72 160.62 195.55 158.99 196.84C157.76 197.82 156.32 198.46 154.78 198.71C153.25 198.97 151.67 198.82 150.21 198.3C148.39 197.65 146.82 196.44 145.71 194.85C144.6 193.26 144 191.36 144 189.42C144 187.47 144.6 185.57 145.71 183.98C146.82 182.39 148.39 181.19 150.21 180.53C151.67 180.01 153.24 179.87 154.78 180.12C156.31 180.37 157.76 181.01 158.99 181.97C160.62 183.27 161.76 185.11 162.2 187.16C162.33 187.71 162.39 188.27 162.37 188.84C162.43 189.19 162.4 189.42 162.37 189.42Z" fill="#263238" fill-opacity="1.000000" fill-rule="nonzero"/>
			<path d="M467.62 220.34L482.87 217.88C492.86 226.03 505.51 230.11 518.33 229.32C531.15 228.52 543.21 222.9 552.14 213.56C561.06 204.23 566.22 191.85 566.58 178.86C566.95 165.88 562.5 153.23 554.11 143.39C545.72 133.56 533.99 127.25 521.24 125.72C508.49 124.19 495.63 127.53 485.2 135.1C474.76 142.67 467.5 153.92 464.84 166.62C462.19 179.33 464.33 192.59 470.84 203.78L467.62 220.34Z" fill="#FFFFFF" fill-opacity="1.000000" fill-rule="nonzero"/>
			<path d="M467.62 220.34C467.62 220.34 467.62 219.99 467.79 219.29L468.37 216.14C468.9 213.31 469.67 209.17 470.68 203.76C470.69 203.74 470.69 203.72 470.7 203.71C470.71 203.69 470.73 203.68 470.74 203.67C470.76 203.66 470.77 203.66 470.79 203.65C470.81 203.65 470.83 203.65 470.84 203.66C470.85 203.65 470.87 203.65 470.88 203.65C470.89 203.65 470.9 203.65 470.92 203.66L470.7 203.83C466.34 196.4 463.88 188 463.53 179.37C463.43 176.68 463.53 173.99 463.84 171.32C464.2 168.47 464.78 165.64 465.56 162.87C468.44 152.84 474.22 143.91 482.17 137.23C490.12 130.56 499.86 126.46 510.14 125.46C518.21 124.69 526.34 125.85 533.88 128.86C541.41 131.87 548.14 136.63 553.52 142.76L555.59 145.22C556.23 146.08 556.8 146.98 557.43 147.84C558.63 149.59 559.73 151.42 560.7 153.3C561.24 154.21 561.58 155.22 562.03 156.17C562.48 157.12 562.94 158.06 563.25 159.07C563.97 161.02 564.56 163.02 565.03 165.05C566.9 172.93 566.97 181.15 565.21 189.06C562.87 199.35 557.49 208.68 549.8 215.81C542.1 222.94 532.45 227.54 522.11 229.01C519.27 229.4 516.4 229.57 513.53 229.51C510.87 229.39 508.22 229.1 505.6 228.65C497.23 227.08 489.39 223.41 482.78 217.98L482.89 217.98L471.49 219.71L468.58 220.14L467.62 220.28L468.63 220.09L471.56 219.6L482.84 217.71L482.95 217.71C489.55 223.05 497.36 226.64 505.67 228.17C508.28 228.61 510.91 228.89 513.55 229C516.39 229.04 519.24 228.87 522.06 228.47C532.27 226.97 541.8 222.39 549.4 215.32C556.99 208.26 562.3 199.03 564.62 188.86C566.34 181.04 566.27 172.93 564.41 165.14C563.94 163.13 563.35 161.16 562.65 159.23C562.35 158.24 561.84 157.32 561.43 156.37C561.03 155.41 560.64 154.43 560.12 153.54C559.16 151.67 558.08 149.87 556.89 148.15C556.28 147.29 555.67 146.4 555.06 145.55L553.02 143.09C547.71 137.03 541.07 132.33 533.62 129.35C526.18 126.37 518.15 125.21 510.18 125.96C503.12 126.66 496.29 128.84 490.11 132.35C483.93 135.87 478.54 140.64 474.27 146.37C470.55 151.38 467.78 157.03 466.08 163.06C465.29 165.8 464.71 168.59 464.34 171.42C464.01 174.07 463.9 176.74 464 179.4C464.29 187.97 466.68 196.33 470.94 203.75C470.96 203.77 470.98 203.8 470.98 203.84C470.98 203.87 470.96 203.9 470.94 203.93C470.92 203.95 470.89 203.96 470.85 203.96C470.82 203.96 470.79 203.95 470.77 203.93L470.99 203.86C469.92 209.21 469.09 213.31 468.56 216.16C468.28 217.55 468.06 218.62 467.91 219.33C467.77 220.04 467.62 220.34 467.62 220.34Z" fill="#263238" fill-opacity="1.000000" fill-rule="nonzero"/>
			<path d="M530.72 178.94C530.71 177.89 531.02 176.87 531.59 176C532.16 175.13 532.98 174.45 533.93 174.05C534.89 173.65 535.94 173.54 536.95 173.75C537.96 173.95 538.89 174.45 539.62 175.19C540.35 175.93 540.85 176.87 541.05 177.9C541.25 178.92 541.15 179.98 540.75 180.95C540.36 181.91 539.69 182.74 538.83 183.32C537.96 183.89 536.96 184.2 535.92 184.2C534.54 184.2 533.22 183.64 532.25 182.65C531.27 181.67 530.72 180.33 530.72 178.94Z" fill="#263238" fill-opacity="1.000000" fill-rule="nonzero"/>
			<path d="M509.85 178.94C509.85 177.89 510.15 176.87 510.72 176C511.3 175.13 512.11 174.45 513.06 174.05C514.02 173.65 515.07 173.54 516.08 173.75C517.09 173.95 518.02 174.45 518.75 175.19C519.48 175.93 519.98 176.87 520.18 177.89C520.39 178.91 520.28 179.98 519.89 180.94C519.49 181.9 518.83 182.73 517.97 183.31C517.11 183.89 516.1 184.2 515.07 184.2C513.69 184.2 512.36 183.65 511.38 182.66C510.41 181.67 509.85 180.33 509.85 178.94Z" fill="#263238" fill-opacity="1.000000" fill-rule="nonzero"/>
			<path d="M489.05 181.57C488.53 180.66 488.29 179.63 488.36 178.58C488.43 177.54 488.8 176.55 489.42 175.72C490.05 174.89 490.91 174.27 491.89 173.93C492.86 173.6 493.92 173.56 494.91 173.83C495.91 174.1 496.81 174.67 497.49 175.45C498.17 176.23 498.6 177.21 498.74 178.24C498.87 179.28 498.7 180.33 498.24 181.26C497.79 182.2 497.07 182.98 496.17 183.5C494.97 184.2 493.55 184.38 492.21 184.02C490.88 183.66 489.74 182.78 489.05 181.57Z" fill="#263238" fill-opacity="1.000000" fill-rule="nonzero"/>
			<path d="M124.73 367.77C121.53 366.23 116.15 363.02 112.82 361.76C109.52 360.34 105.85 360.09 102.39 361.05C100.44 361.71 98.48 363.3 98.47 365.39L111.54 375.15L124.73 371.63L124.73 367.77Z" fill="#FF9A6C" fill-opacity="1.000000" fill-rule="nonzero"/>
			<path d="M110.43 367.63C110.43 367.63 86.95 362.48 83.04 360.45C79.12 358.42 58.72 348.09 55.3 348.09C51.88 348.09 48.96 349.02 48.34 352.46L52.81 355.97L53.38 357.77L61.01 361.79L62.36 364.32L81.82 374.83C81.82 374.83 102.22 385.31 105.63 385.9C109.03 386.49 126.03 387.93 133.3 394.19L162.49 382.06C162.49 382.06 154.06 369.95 147.57 366.97C141.78 364.31 132.06 364.31 125.27 367.13L110.43 367.63Z" fill="#FFBF9D" fill-opacity="1.000000" fill-rule="nonzero"/>
			<path d="M129.96 387.45C129.96 387.45 167.11 469.39 173.09 485.85C173.09 485.85 214.62 478.93 216.04 455.62L162.54 381.82L129.96 387.45Z" fill="#FFBF9D" fill-opacity="1.000000" fill-rule="nonzero"/>
			<path d="M95.46 369.49C95.46 369.49 95.32 369.49 95.06 369.49C94.68 369.45 94.31 369.37 93.94 369.25C92.61 368.84 91.32 368.32 90.08 367.68C88.49 366.9 86.66 365.88 84.64 364.74C83.63 364.17 82.57 363.57 81.47 362.99C80.36 362.42 79.16 361.91 77.93 361.37C75.65 360.33 73.3 359.46 70.9 358.79C68.7 358.23 66.58 357.81 64.99 358.36C64.37 358.61 63.81 358.98 63.34 359.46C62.87 359.94 62.51 360.51 62.27 361.14C62.09 361.62 61.88 362.08 61.65 362.54C61.65 362.54 61.65 362.39 61.71 362.14C61.79 361.77 61.9 361.4 62.03 361.04C62.25 360.46 62.54 359.92 62.9 359.43C63.37 358.75 64.03 358.23 64.8 357.93C65.74 357.61 66.74 357.51 67.73 357.63C68.83 357.74 69.92 357.93 71 358.21C73.45 358.86 75.85 359.72 78.17 360.77C79.39 361.31 80.6 361.81 81.73 362.42C82.86 363.02 83.91 363.65 84.92 364.22C86.93 365.39 88.73 366.45 90.27 367.26C91.47 367.92 92.71 368.5 93.98 369C94.93 369.35 95.46 369.43 95.46 369.49Z" fill="#FF9A6C" fill-opacity="1.000000" fill-rule="nonzero"/>
			<path d="M73.06 357.7C71.92 357.47 70.81 357.08 69.77 356.55C67.26 355.35 64.68 354.31 62.05 353.44C60.61 353.02 59.1 352.89 57.61 353.05C57.01 353.07 56.43 353.21 55.89 353.47C55.35 353.72 54.87 354.08 54.47 354.53C54 355.2 53.68 355.97 53.56 356.78C53.55 357.1 53.49 357.41 53.38 357.7C53.32 357.39 53.32 357.07 53.38 356.76C53.42 355.88 53.7 355.03 54.18 354.3C54.55 353.78 55.03 353.36 55.59 353.07C56.23 352.76 56.91 352.57 57.61 352.49C59.18 352.29 60.77 352.41 62.29 352.85C64.96 353.71 67.55 354.82 70.02 356.17C71.06 356.62 72.08 357.14 73.06 357.7Z" fill="#FF9A6C" fill-opacity="1.000000" fill-rule="nonzero"/>
			<path d="M131.67 365.31C131.67 365.31 131.35 365.5 130.73 365.72C129.84 366.05 128.93 366.33 128.02 366.56C125 367.35 121.9 367.82 118.79 367.95C115.67 368.09 112.55 367.9 109.47 367.38C108.26 367.18 107.36 366.97 106.71 366.78C106.37 366.73 106.03 366.62 105.73 366.45C105.73 366.35 107.19 366.63 109.54 366.93C112.6 367.31 115.68 367.44 118.76 367.31C121.84 367.15 124.9 366.74 127.92 366.08C130.17 365.64 131.59 365.22 131.67 365.31Z" fill="#FF9A6C" fill-opacity="1.000000" fill-rule="nonzero"/>
			<path d="M477.55 316.66L423.52 305.34L410.14 295.2L338.76 309.12C337.62 311.23 326.05 327.57 326.05 327.57L297.94 337.22C285.99 340.4 275.32 347.28 267.44 356.9C259.95 366.27 253.8 376.66 249.2 387.78C236.56 417.8 218.3 452.49 218.3 452.49L206.86 433.84L158.63 456.82C158.63 456.82 186.88 514.42 196.23 522.65C206.63 531.79 230.54 532.84 247.06 515.8C257.02 505.51 285.8 464.87 291.8 454.7L300.7 497.24L308.88 545.78L295.65 579.2L488.75 579.2L480.76 547.62C480.76 547.62 488.63 465.29 490.81 449.97C495.93 413.82 477.55 316.66 477.55 316.66Z" fill="#5ED8FF" fill-opacity="1.000000" fill-rule="nonzero"/>
			<path d="M477.55 316.66C477.55 316.66 516.22 327.63 524.74 366.51C529.89 390.07 547.4 457.21 553.57 512.49C557.21 545.35 557.12 575.72 557.21 579.2L497.87 579.2L472.73 327.63L477.55 316.66Z" fill="#5ED8FF" fill-opacity="1.000000" fill-rule="nonzero"/>
			<path d="M378.38 350.04C378.38 350.04 378.38 350.19 378.22 350.45L377.67 351.58C377.19 352.58 376.46 354.04 375.67 355.9C373.95 359.59 371.93 365.06 368.67 371.17L368.52 371.48L368.25 371.25C364.24 367.79 359.88 363.63 355.38 359.14C347.42 351.15 340.44 343.71 335.28 338.43L329.14 332.19L327.45 330.51C327.25 330.32 327.06 330.12 326.89 329.89C327.13 330.04 327.34 330.22 327.54 330.42L329.29 332.02C330.8 333.42 332.94 335.5 335.57 338.11C340.82 343.31 347.86 350.71 355.8 358.69C360.3 363.18 364.62 367.3 368.59 370.82L368.15 370.89C371.43 364.86 373.53 359.41 375.33 355.75C376.21 353.89 376.95 352.46 377.49 351.49C377.73 351.06 377.94 350.69 378.11 350.41C378.19 350.28 378.28 350.15 378.38 350.04Z" fill="#000000" fill-opacity="1.000000" fill-rule="nonzero"/>
			<path d="M424.27 306.73C424.27 307.02 424.23 307.31 424.16 307.59C424.04 308.21 423.89 309.02 423.71 310.05C423.27 312.17 422.49 315.22 421.5 318.93C419.39 326.31 415.99 336.51 411.77 347.52C409.54 353.35 407.35 358.86 405.31 363.74L405.15 364.12L404.85 363.85C399.34 358.93 394.4 355.06 391.06 352.18C389.38 350.74 388.07 349.59 387.18 348.77L386.2 347.84C385.97 347.62 385.86 347.51 385.87 347.5C386.01 347.57 386.14 347.66 386.26 347.77L387.3 348.64L391.28 351.91C394.7 354.72 399.67 358.52 405.24 363.41L404.78 363.52C406.78 358.6 408.96 353.12 411.17 347.3C415.34 336.23 418.81 326.2 421.01 318.81C422.1 315.12 422.91 312.1 423.44 309.99C423.67 309 423.87 308.2 424.01 307.53C424.08 307.26 424.16 306.99 424.27 306.73Z" fill="#000000" fill-opacity="1.000000" fill-rule="nonzero"/>
			<path d="M299.18 491.79C299.13 491.7 299.09 491.61 299.07 491.52L298.81 490.68C298.6 489.86 298.29 488.78 297.9 487.43C297.49 486.03 297.09 484.3 296.6 482.28C296.12 480.26 295.59 477.95 295.07 475.39C292.38 462.05 290.49 448.55 289.4 434.97C288.03 419.07 287.72 404.62 287.8 394.17C287.8 388.95 287.93 384.71 288.08 381.8C288.15 380.37 288.2 379.25 288.24 378.43C288.24 378.09 288.24 377.79 288.3 377.56C288.28 377.46 288.28 377.36 288.3 377.26C288.31 377.36 288.31 377.47 288.3 377.57L288.3 378.44C288.3 379.27 288.3 380.39 288.3 381.8C288.3 384.73 288.2 388.95 288.22 394.17C288.22 404.6 288.64 419.04 290.01 434.91C291.1 448.47 292.93 461.95 295.48 475.3C295.98 477.86 296.44 480.22 296.92 482.19C297.39 484.16 297.74 485.97 298.13 487.37L298.94 490.64L299.12 491.49C299.18 491.69 299.19 491.79 299.18 491.79Z" fill="#000000" fill-opacity="1.000000" fill-rule="nonzero"/>
			<path d="M480.76 359.78C480.84 359.89 480.89 360 480.94 360.13C481.04 360.39 481.19 360.72 481.36 361.14C481.75 362.07 482.27 363.39 482.95 365.05C483.29 365.91 483.7 366.84 484.08 367.89L485.24 371.33C485.65 372.56 486.09 373.9 486.57 375.31C487.04 376.71 487.36 378.25 487.78 379.83C491.43 392.49 493.25 410.8 492.21 430.84C491.16 450.88 488.83 468.97 487.34 481.96C486.6 488.45 485.99 493.73 485.57 497.42C485.36 499.2 485.19 500.62 485.07 501.61L484.92 502.71C484.91 502.83 484.89 502.96 484.85 503.08C484.83 502.96 484.83 502.83 484.85 502.71L484.94 501.6C485.03 500.59 485.17 499.14 485.32 497.4C485.67 493.71 486.2 488.44 486.89 481.91C488.22 468.85 490.46 450.82 491.53 430.82C492.6 410.82 490.8 392.6 487.31 379.94L486.09 375.42L484.87 371.46C484.49 370.23 484.12 369.06 483.78 368C483.44 366.94 483.03 365.99 482.7 365.13C482.07 363.45 481.58 362.13 481.21 361.18C481.07 360.75 480.95 360.42 480.85 360.15C480.8 360.03 480.77 359.91 480.76 359.78Z" fill="#000000" fill-opacity="1.000000" fill-rule="nonzero"/>
			<path d="M218.62 494.37C218.45 494.37 218.24 485 218.17 473.46C218.1 461.92 218.17 452.55 218.35 452.55C218.53 452.55 218.73 461.92 218.8 473.46C218.87 485 218.8 494.37 218.62 494.37Z" fill="#000000" fill-opacity="1.000000" fill-rule="nonzero"/>
			<path d="M394.09 551.13L394.09 550.62C394.09 550.25 394.19 549.76 394.26 549.12C394.43 547.76 394.66 545.83 394.96 543.35C395.12 542.12 395.29 540.7 395.49 539.19C395.68 537.68 395.83 536 396.01 534.27C396.36 530.7 396.85 526.66 397.23 522.15C397.41 519.92 397.59 517.55 397.8 515.11C398 512.66 398.1 510.1 398.26 507.46C398.62 502.17 398.78 496.5 398.99 490.54C399.26 478.63 399.22 465.51 398.61 451.77C398 438.04 396.76 424.97 395.39 413.13C394.62 407.21 393.95 401.59 393.09 396.36C392.69 393.74 392.34 391.21 391.88 388.79C391.41 386.36 391.04 384.04 390.66 381.81C389.92 377.37 389.07 373.39 388.37 369.87C388.02 368.11 387.7 366.47 387.4 364.95C387.1 363.42 386.77 362.08 386.49 360.85L385.27 355.18C385.15 354.56 385.04 354.06 384.97 353.71C384.9 353.35 384.88 353.19 384.88 353.19C384.94 353.35 384.99 353.51 385.03 353.68L385.41 355.15L386.76 360.8L387.72 364.89C388.03 366.39 388.37 368.01 388.75 369.81C389.47 373.31 390.36 377.3 391.12 381.74C391.53 383.96 391.93 386.29 392.34 388.71C392.78 391.17 393.13 393.63 393.55 396.29C394.43 401.53 395.12 407.15 395.91 413.07C397.31 424.92 398.5 438 399.18 451.75C399.86 465.5 399.82 478.64 399.51 490.57C399.28 496.53 399.11 502.2 398.72 507.49C398.55 510.14 398.43 512.7 398.22 515.16C398.02 517.62 397.8 519.96 397.6 522.22C397.26 526.72 396.74 530.83 396.39 534.32C396.18 536.1 395.99 537.76 395.82 539.24C395.64 540.71 395.41 542.14 395.23 543.4C394.88 545.86 394.6 547.8 394.42 549.14L394.19 550.64C394.17 550.81 394.13 550.97 394.09 551.13Z" fill="#000000" fill-opacity="1.000000" fill-rule="nonzero"/>
			<path d="M419.79 418.37L420.04 418.37L420.8 418.28L423.78 417.94L435.18 416.71L475.73 412.45L476.03 412.45L476.03 412.76C476.34 425.17 476.7 439.22 477.08 454.11L477.08 454.25L477 454.33L472.13 459.66L454.4 478.82L454.24 478.99L454.04 478.88L424.16 463.88L424.03 463.82L424.03 463.71C422.73 449.99 421.59 438.65 420.9 430.69C420.54 426.78 420.26 423.71 420.06 421.58C419.98 420.56 419.9 419.77 419.86 419.19C419.81 418.61 419.86 418.4 419.86 418.4C419.86 418.4 419.86 418.7 419.96 419.24C420.07 419.78 420.12 420.63 420.24 421.7C420.46 423.85 420.79 426.94 421.22 430.88C422.03 438.77 423.19 450.05 424.6 463.69L424.45 463.48L454.37 478.4L454.01 478.47L471.71 459.23L476.57 453.91L476.48 454.14C476.13 439.24 475.79 425.21 475.5 412.78L475.82 413.05L435.38 416.97L423.92 418.05L420.86 418.32L420.07 418.39L419.79 418.37Z" fill="#000000" fill-opacity="1.000000" fill-rule="nonzero"/>
			<path d="M476.11 427.03C475.42 427.22 474.71 427.36 474 427.43C472.64 427.65 470.67 427.94 468.23 428.26C463.36 428.88 456.57 429.61 449.09 430.34L429.92 432.23L424.12 432.84C423.42 432.96 422.71 433.01 422 433C422.68 432.81 423.39 432.68 424.1 432.6C425.46 432.38 427.43 432.09 429.88 431.77C434.74 431.15 441.54 430.42 449.03 429.7L468.18 427.8L473.98 427.19C474.68 427.07 475.39 427.02 476.11 427.03Z" fill="#000000" fill-opacity="1.000000" fill-rule="nonzero"/>
			<g opacity="0.300000">
				<path d="M487.85 475.4L489.9 500.53C494.41 479.01 501.5 455.87 500.39 433.9C499.28 411.93 497.24 390.91 485.01 371.02C490.33 386 492.77 401.86 492.2 417.76C491.08 443.47 487.85 475.4 487.85 475.4Z" fill="#000000" fill-opacity="1.000000" fill-rule="nonzero"/>
			</g>
			<path d="M210.57 428.63C209.91 427.11 208.75 425.88 207.29 425.14C205.58 424.55 203.74 425.39 202.12 426.2L158 448.42C155.1 449.88 151.92 451.61 150.85 454.69C149.45 458.63 152.07 462.78 154.5 466.17C158.56 471.81 163.42 477.96 170.31 478.76L208.26 452.44C212.89 451.75 215.77 446.52 215.56 441.79C215.34 437.05 212.93 432.73 210.57 428.63Z" fill="#5ED8FF" fill-opacity="1.000000" fill-rule="nonzero"/>
			<path d="M215.36 444.71C215.25 444.87 215.12 445.02 214.97 445.14L213.76 446.29C212.71 447.27 211.17 448.66 209.23 450.34C205.35 453.69 199.84 458.16 193.42 462.71C187 467.26 181.13 471.01 176.67 473.55C174.45 474.84 172.64 475.85 171.38 476.51L169.92 477.26C169.58 477.43 169.4 477.51 169.38 477.48C169.52 477.35 169.68 477.24 169.86 477.15L171.26 476.29L176.44 473.15C180.8 470.5 186.75 466.68 193.1 462.14C199.44 457.6 204.99 453.21 208.9 449.95L213.56 446.06L214.78 445.01C215.19 444.81 215.35 444.69 215.36 444.71Z" fill="#000000" fill-opacity="1.000000" fill-rule="nonzero"/>
			<g opacity="0.300000">
				<path d="M423.7 309.55C418.51 326.99 411.23 346.72 405.09 363.67C399.86 359.18 392.54 353.24 387.3 348.74C391.81 357.79 397.23 366.35 403.46 374.28C404.19 375.21 405.17 376.22 406.3 375.99C407.43 375.77 407.94 374.59 408.33 373.53L417.9 347.91C422.37 335.93 426.69 321.96 423.7 309.55Z" fill="#000000" fill-opacity="1.000000" fill-rule="nonzero"/>
			</g>
			<path d="M341.62 119.8C357.43 115.2 372.21 119.8 386.79 127.45C401.37 135.1 413.13 147.73 420.74 162.43C428.77 177.91 432.32 195.96 429.41 213.19C426.51 230.42 416.88 246.66 402.45 256.24C382.74 269.38 355.58 268.69 335.28 256.52C314.99 244.36 301.62 221.94 298.09 198.33C295.65 182.07 297.62 164.93 305.13 150.36C312.63 135.8 325.9 123.99 341.61 119.79L341.62 119.8Z" fill="#263238" fill-opacity="1.000000" fill-rule="nonzero"/>
			<path d="M393.52 169.85C390.46 163.91 390.6 156.86 388.93 150.36C385.28 136.08 372.39 125.76 358.39 121.64C345.36 117.79 330.3 120.68 315.83 127.3C305.93 131.84 296.92 138.8 291.01 148.03C287.14 154.21 284.79 161.24 284.16 168.53C283.53 175.81 284.62 183.15 287.36 189.92L359.58 170.71C367.09 175.63 374.79 180.71 383.48 183.01C386.01 183.8 388.7 183.92 391.29 183.36C392.58 183.06 393.75 182.38 394.66 181.42C395.58 180.46 396.2 179.25 396.46 177.94C396.76 175.01 394.84 172.44 393.52 169.85Z" fill="#263238" fill-opacity="1.000000" fill-rule="nonzero"/>
			<path d="M410.75 299.38L392.11 166.76C391.28 160.49 388.46 154.09 382.22 154.39L316.56 147.99C295.98 148.95 286.33 176.28 288.15 196.98C290.18 220.03 293.55 248.09 298.79 264.72C309.33 298.14 335.95 298.48 335.95 298.48C335.95 298.48 337.57 305.12 339.6 317.54L382.16 346.18L410.75 299.38Z" fill="#FFBF9D" fill-opacity="1.000000" fill-rule="nonzero"/>
			<path d="M304.02 222.21C304.18 223.35 304.78 224.39 305.69 225.1C306.6 225.8 307.75 226.12 308.88 225.98C309.44 225.94 309.99 225.79 310.49 225.53C310.99 225.28 311.43 224.92 311.79 224.49C312.15 224.05 312.43 223.55 312.59 223.01C312.76 222.47 312.82 221.9 312.76 221.33C312.6 220.19 312 219.15 311.09 218.44C310.18 217.74 309.04 217.42 307.9 217.55C307.34 217.59 306.79 217.74 306.29 218C305.79 218.26 305.35 218.62 304.99 219.05C304.63 219.49 304.36 219.99 304.19 220.53C304.02 221.07 303.97 221.64 304.02 222.21Z" fill="#263238" fill-opacity="1.000000" fill-rule="nonzero"/>
			<path d="M296.36 210.58C296.98 211.08 299.9 208.12 304.58 207.4C309.26 206.67 313.03 208.53 313.46 207.87C313.66 207.57 312.96 206.64 311.3 205.75C309.07 204.65 306.55 204.27 304.09 204.67C301.66 205.03 299.41 206.17 297.66 207.93C296.38 209.26 296.05 210.33 296.36 210.58Z" fill="#263238" fill-opacity="1.000000" fill-rule="nonzero"/>
			<path d="M347.22 215.1C347.38 216.25 347.98 217.29 348.89 218C349.8 218.7 350.95 219.02 352.09 218.89C352.65 218.85 353.19 218.69 353.69 218.44C354.19 218.18 354.64 217.82 355 217.39C355.36 216.96 355.63 216.45 355.8 215.91C355.96 215.37 356.02 214.8 355.97 214.24C355.81 213.09 355.21 212.05 354.3 211.34C353.39 210.63 352.24 210.31 351.1 210.45C350.54 210.49 350 210.64 349.5 210.9C349 211.16 348.56 211.51 348.2 211.95C347.84 212.38 347.56 212.88 347.4 213.42C347.23 213.96 347.17 214.53 347.22 215.1Z" fill="#263238" fill-opacity="1.000000" fill-rule="nonzero"/>
			<path d="M340.83 204.32C341.45 204.82 344.38 201.86 349.05 201.14C353.72 200.41 357.5 202.27 357.92 201.6C358.13 201.31 357.43 200.37 355.77 199.49C353.53 198.39 351.01 198.01 348.55 198.41C346.09 198.77 343.8 199.93 342.04 201.72C340.83 202.95 340.5 204.18 340.83 204.32Z" fill="#263238" fill-opacity="1.000000" fill-rule="nonzero"/>
			<path d="M330.76 242.05C330.76 241.78 327.76 241.72 322.96 241.84C321.75 241.84 320.53 241.84 320.25 241.04C319.97 240.24 320.14 238.84 320.51 237.35C321.19 234.26 321.91 231.01 322.66 227.62C325.58 213.77 327.52 202.47 326.95 202.36C326.38 202.24 323.58 213.43 320.65 227.2C319.96 230.61 319.29 233.87 318.67 236.98C318.43 238.42 317.88 240.09 318.77 241.8C319 242.2 319.32 242.54 319.71 242.8C320.1 243.05 320.54 243.21 320.99 243.26C321.68 243.36 322.38 243.36 323.06 243.26C327.84 242.75 330.78 242.31 330.76 242.05Z" fill="#263238" fill-opacity="1.000000" fill-rule="nonzero"/>
			<path d="M335.96 298.48C351.95 296.26 367.01 289.58 379.47 279.21C379.47 279.21 368.86 306.08 338.13 308.79L335.96 298.48Z" fill="#FF9A6C" fill-opacity="1.000000" fill-rule="nonzero"/>
			<path d="M334.46 253.14C335.17 251.87 336.2 250.81 337.43 250.05C338.67 249.29 340.08 248.87 341.52 248.81C342.57 248.75 343.62 248.91 344.61 249.27C345.6 249.63 346.5 250.19 347.27 250.92C348.02 251.61 348.53 252.52 348.75 253.51C348.97 254.51 348.88 255.55 348.49 256.5C347.5 258.48 344.93 259.3 342.6 258.96C340.28 258.51 338.06 257.6 336.09 256.28C335.5 255.97 334.97 255.56 334.54 255.05C334.33 254.81 334.19 254.52 334.14 254.21C334.1 253.9 334.14 253.58 334.27 253.29L334.46 253.14Z" fill="#FF9A6C" fill-opacity="1.000000" fill-rule="nonzero"/>
			<path d="M345.01 243.19C344.23 243.26 345.01 248.41 341.2 252.71C337.4 257.02 331.94 257.3 332 258.01C332 258.36 333.36 258.82 335.65 258.54C338.63 258.12 341.37 256.66 343.38 254.4C345.31 252.23 346.34 249.39 346.24 246.48C346.1 244.3 345.35 243.12 345.01 243.19Z" fill="#263238" fill-opacity="1.000000" fill-rule="nonzero"/>
			<path d="M339.49 190.2C340.15 191.43 344.72 190.09 350.3 189.91C355.88 189.72 360.55 190.56 361.1 189.29C361.34 188.69 360.39 187.61 358.41 186.64C355.79 185.48 352.95 184.94 350.1 185.06C347.25 185.18 344.46 185.95 341.95 187.32C340.06 188.46 339.2 189.62 339.49 190.2Z" fill="#263238" fill-opacity="1.000000" fill-rule="nonzero"/>
			<path d="M294.62 189.71C295.6 190.66 298.66 189.05 302.52 188.39C306.39 187.74 309.82 188.01 310.35 186.77C310.61 186.17 309.93 185.18 308.35 184.38C306.24 183.47 303.91 183.2 301.65 183.62C299.4 184.04 297.31 185.13 295.67 186.75C294.44 188.06 294.16 189.24 294.62 189.71Z" fill="#263238" fill-opacity="1.000000" fill-rule="nonzero"/>
			<path d="M404.14 158.49C395.29 139.5 363.26 115.92 342.93 120.14L312.79 144.45C314.6 149.96 317.85 154.88 322.19 158.68C326.54 162.48 331.82 165.03 337.47 166.05C343.49 167.05 350.54 166.6 354.65 171.17C358.76 175.75 357.78 183.62 361.75 188.48C367.26 195.22 379.62 193.2 384.07 200.71C386.03 203.98 385.8 208.23 387.79 211.48C390.46 215.8 402.73 220.09 407.25 217.9C411.76 215.71 410.74 207.55 411.72 203.03C413.41 195.34 411.81 191.69 410.39 187.71C407.1 178.26 408.38 167.55 404.14 158.49Z" fill="#263238" fill-opacity="1.000000" fill-rule="nonzero"/>
			<path d="M393.78 223.86C393.41 221.3 395.41 214.84 397.85 214.02C404.34 211.95 416.41 210.63 419.1 227.71C422.75 251.08 398.87 249.96 398.71 249.29C398.55 248.63 395.1 232.64 393.78 223.86Z" fill="#FFBF9D" fill-opacity="1.000000" fill-rule="nonzero"/>
			<path d="M404.36 239.33C404.46 239.23 404.81 239.55 405.58 239.75C406.6 240.01 407.68 239.86 408.6 239.33C410.88 238.04 412.32 233.79 411.77 229.56C411.51 227.55 410.81 225.63 409.73 223.93C409.4 223.23 408.9 222.63 408.29 222.17C407.68 221.71 406.97 221.41 406.21 221.3C405.73 221.25 405.25 221.37 404.85 221.64C404.45 221.92 404.16 222.33 404.02 222.8C403.82 223.5 404.02 223.94 403.91 224.03C403.8 224.11 403.37 223.72 403.39 222.72C403.43 222.13 403.67 221.56 404.07 221.12C404.63 220.53 405.39 220.19 406.2 220.17C408 220.01 409.85 221.4 410.97 223.11C412.27 224.97 413.1 227.13 413.4 229.39C413.99 234.11 412.3 238.9 409.12 240.46C408.53 240.74 407.89 240.89 407.23 240.89C406.58 240.89 405.94 240.74 405.35 240.46C404.5 239.85 404.29 239.38 404.36 239.33Z" fill="#FF9A6C" fill-opacity="1.000000" fill-rule="nonzero"/>
			<path d="M318.72 136.59C317.66 146.43 304.69 160.26 299.26 168.42C288.84 183.98 287 188.96 290.67 220.65C283.76 210.35 278.22 200.12 277.29 187.71C276.37 175.3 279.46 162.42 286.95 152.55C294.44 142.69 306.49 136.19 318.78 136.56L318.72 136.59Z" fill="#263238" fill-opacity="1.000000" fill-rule="nonzero"/>
			<path d="M373.82 103.22C378.68 97.79 385.71 94.26 393.01 92.42C403.4 89.79 414.82 90.5 424.28 95.07C433.74 99.65 441.06 108.24 442.97 118.08C443.91 123.13 443.47 128.35 441.69 133.17C439.92 137.99 436.88 142.23 432.9 145.43C438.31 150.74 444.91 154.64 452.13 156.82C450.16 159.81 446.52 161.56 442.85 162.18C439.16 162.65 435.42 162.63 431.74 162.11C434.25 165.91 438.02 168.69 442.36 169.96C436.38 171.35 430.14 171.15 424.26 169.35C418.51 167.59 413 165.09 407.88 161.91C390.09 151.47 380.27 142.32 368.26 126.24C366.69 119.31 368.92 108.65 373.82 103.22Z" fill="#263238" fill-opacity="1.000000" fill-rule="nonzero"/>
			<path d="M412.17 152.52C399.11 133.22 382.49 122.9 367.45 119.69L412.17 152.52Z" fill="#263238" fill-opacity="1.000000" fill-rule="nonzero"/>
			<path d="M367.45 119.69C368.14 119.97 368.85 120.18 369.57 120.34C370.95 120.73 372.93 121.33 375.31 122.26C381.52 124.7 387.35 128.01 392.64 132.1C397.93 136.18 402.75 140.84 407.01 146.01C408.62 148.01 409.92 149.7 410.76 150.81C411.18 151.43 411.65 152.02 412.17 152.56C411.82 151.89 411.41 151.25 410.95 150.64C410.18 149.42 408.94 147.75 407.37 145.73C403.21 140.4 398.43 135.62 393.12 131.48C387.76 127.35 381.82 124.08 375.48 121.77C373.57 121.08 371.62 120.51 369.65 120.06C368.92 119.87 368.19 119.75 367.45 119.69Z" fill="#455A64" fill-opacity="1.000000" fill-rule="nonzero"/>
			<path d="M427.74 168.96L427.44 169.06L426.59 169.4C425.86 169.72 424.77 170.14 423.33 170.63C419.28 172.01 415.07 172.87 410.81 173.22C404.49 173.69 398.13 173.28 391.92 171.99C384.32 170.37 376.89 168.03 369.72 164.99C362.06 161.83 354.84 158.58 348.4 155.39C342.69 152.6 337.19 149.37 331.95 145.75C328.43 143.3 325.1 140.57 322 137.58C320.89 136.54 320.08 135.66 319.57 135.12L318.93 134.47C318.78 134.34 318.71 134.26 318.7 134.27C318.68 134.29 318.7 134.36 318.88 134.52L319.47 135.22C320 135.84 320.78 136.73 321.91 137.82C324.95 140.89 328.25 143.69 331.77 146.19C336.99 149.9 342.49 153.19 348.22 156.03C354.67 159.27 361.88 162.54 369.55 165.71C376.76 168.76 384.24 171.1 391.9 172.69C398.17 173.95 404.59 174.31 410.95 173.75C415.21 173.35 419.4 172.42 423.43 170.97C424.85 170.41 425.94 169.96 426.65 169.59L427.47 169.18C427.65 169.02 427.75 168.97 427.74 168.96Z" fill="#455A64" fill-opacity="1.000000" fill-rule="nonzero"/>
			<path d="M358.84 284.79L356.64 280.44C356.79 280.35 372.07 272.43 377.94 267.43C391.78 255.68 404.5 236.89 404.63 236.68L408.64 239.45C408.11 240.25 395.43 258.98 381.06 271.19C374.74 276.52 359.48 284.46 358.84 284.79Z" fill="#455A64" fill-opacity="1.000000" fill-rule="nonzero"/>
			<path d="M370.21 271.2C370.21 271.2 349.34 280.62 349.34 282.71C349.34 284.8 352.65 288.98 355.13 288.77C357.61 288.57 364.78 284.48 366.07 282.81C367.36 281.14 369.65 276.83 372.15 274.74L370.21 271.2Z" fill="#263238" fill-opacity="1.000000" fill-rule="nonzero"/>
			<path d="M408.47 207.87L403.61 207.63C403.79 193.44 401.37 179.35 396.48 166.05C385.93 138.54 365.63 123.78 336.18 122.16C333.5 122.04 330.82 122.23 328.18 122.71L330.31 120.67C331.34 119.69 332.54 118.9 333.85 118.35C335.64 117.59 337.59 117.28 339.53 117.46C376.71 120.72 393.52 144.63 401.07 164.41C406.21 178.3 408.72 193.04 408.47 207.87Z" fill="#455A64" fill-opacity="1.000000" fill-rule="nonzero"/>
			<path d="M421.45 230.19C421.45 242.57 414.55 252.6 406.04 252.6C397.53 252.6 390.63 242.57 390.63 230.19C390.63 217.81 397.53 207.78 406.04 207.78C414.55 207.78 421.45 217.81 421.45 230.19Z" fill="#455A64" fill-opacity="1.000000" fill-rule="evenodd"/>
			<path d="M421.45 230.19C421.43 230.09 421.43 229.98 421.45 229.88C421.45 229.64 421.45 229.34 421.38 228.97C421.32 227.81 421.2 226.65 421.02 225.5C420.39 221.27 418.76 217.24 416.27 213.78C415.43 212.66 414.46 211.65 413.37 210.77C412.2 209.83 410.87 209.1 409.45 208.62C407.93 208.12 406.31 207.96 404.73 208.16C403.05 208.42 401.44 209.02 400.01 209.94C396.97 212.08 394.63 215.08 393.27 218.55C391.75 222.26 390.97 226.23 390.97 230.24C390.97 234.25 391.75 238.22 393.27 241.92C394.63 245.4 396.97 248.4 400.01 250.53C401.44 251.46 403.05 252.06 404.73 252.32C406.31 252.51 407.92 252.36 409.45 251.86C410.87 251.38 412.2 250.65 413.37 249.71C414.45 248.82 415.42 247.81 416.27 246.7C418.76 243.23 420.39 239.21 421.02 234.97C421.2 233.83 421.32 232.67 421.38 231.51C421.38 231.14 421.38 230.84 421.45 230.6C421.43 230.49 421.43 230.39 421.45 230.29C421.47 230.39 421.47 230.49 421.45 230.6L421.45 231.51C421.44 232.68 421.35 233.85 421.21 235.01C420.66 239.32 419.06 243.43 416.56 246.97C415.71 248.13 414.72 249.18 413.62 250.09C412.4 251.08 411.02 251.85 409.54 252.37C407.95 252.9 406.26 253.07 404.59 252.87C402.83 252.62 401.15 251.99 399.65 251.03C396.5 248.86 394.06 245.79 392.65 242.22C391.09 238.44 390.28 234.39 390.28 230.29C390.28 226.19 391.09 222.14 392.65 218.36C394.06 214.78 396.5 211.72 399.65 209.55C401.15 208.59 402.83 207.96 404.59 207.71C406.26 207.51 407.95 207.68 409.54 208.21C411.02 208.72 412.4 209.49 413.62 210.49C414.72 211.4 415.71 212.45 416.56 213.61C419.07 217.14 420.67 221.25 421.21 225.57C421.35 226.72 421.43 227.89 421.45 229.06L421.45 229.98C421.46 230.05 421.46 230.12 421.45 230.19Z" fill="#263238" fill-opacity="1.000000" fill-rule="nonzero"/>
			<path d="M418.23 228.94C418.23 236.82 413.83 243.2 408.41 243.2C402.99 243.2 398.6 236.82 398.6 228.94C398.6 221.06 402.99 214.67 408.41 214.67C413.83 214.67 418.23 221.06 418.23 228.94Z" fill="#455A64" fill-opacity="1.000000" fill-rule="evenodd"/>
			<path d="M418.23 228.94C418.15 228.94 418.23 227.85 417.87 225.95C417.47 223.27 416.42 220.74 414.83 218.57C413.75 217.08 412.25 215.95 410.53 215.33C409.57 215.02 408.56 214.92 407.56 215.05C406.51 215.21 405.5 215.59 404.61 216.17C402.7 217.51 401.22 219.39 400.36 221.58C399.4 223.92 398.91 226.43 398.92 228.96C398.9 231.49 399.4 234 400.36 236.34C401.22 238.53 402.7 240.41 404.61 241.75C405.5 242.33 406.51 242.71 407.56 242.87C408.56 243 409.57 242.9 410.53 242.59C412.25 241.97 413.75 240.84 414.83 239.35C416.42 237.18 417.47 234.65 417.87 231.97C418.18 230.07 418.15 228.98 418.23 229C418.24 229.25 418.24 229.51 418.23 229.77C418.22 230.52 418.18 231.27 418.08 232.01C417.76 234.77 416.75 237.4 415.15 239.66C414.04 241.25 412.46 242.47 410.65 243.13C409.63 243.48 408.54 243.6 407.46 243.47C406.32 243.3 405.24 242.88 404.27 242.24C402.24 240.86 400.68 238.89 399.77 236.6C398.76 234.18 398.25 231.58 398.25 228.95C398.25 226.33 398.76 223.73 399.77 221.31C400.68 219.02 402.24 217.05 404.27 215.66C405.23 215.03 406.32 214.61 407.45 214.43C408.53 214.31 409.62 214.43 410.65 214.78C412.46 215.44 414.04 216.65 415.15 218.25C416.75 220.51 417.76 223.14 418.08 225.9C418.18 226.64 418.22 227.39 418.23 228.14C418.24 228.4 418.24 228.67 418.23 228.94Z" fill="#263238" fill-opacity="1.000000" fill-rule="nonzero"/>
			<path d="M416.15 228.94C416.15 234.6 412.99 239.19 409.09 239.19C405.2 239.19 402.04 234.6 402.04 228.94C402.04 223.27 405.2 218.68 409.09 218.68C412.99 218.68 416.15 223.27 416.15 228.94Z" fill="#455A64" fill-opacity="1.000000" fill-rule="evenodd"/>
			<path d="M416.15 228.94C416.09 228.94 416.09 228.16 415.87 226.8C415.55 224.88 414.8 223.06 413.65 221.49C412.88 220.43 411.82 219.63 410.59 219.19C409.89 218.97 409.15 218.9 408.42 219.01C407.7 219.11 407 219.38 406.39 219.8C403.76 221.56 402.36 225.25 402.34 228.92C402.33 232.6 403.76 236.3 406.39 238.06C407 238.48 407.7 238.75 408.42 238.85C409.15 238.95 409.89 238.89 410.59 238.66C411.82 238.23 412.88 237.43 413.65 236.36C414.8 234.8 415.55 232.98 415.87 231.06C416.09 229.7 416.09 228.92 416.15 228.94C416.18 229.12 416.18 229.31 416.15 229.49C416.15 230.03 416.12 230.57 416.06 231.1C415.84 233.1 415.12 235.01 413.97 236.65C413.15 237.78 412.01 238.64 410.7 239.11C409.95 239.36 409.16 239.45 408.38 239.37C407.55 239.25 406.75 238.96 406.04 238.5C404.57 237.5 403.43 236.07 402.77 234.4C402.04 232.65 401.66 230.76 401.66 228.86C401.66 226.96 402.04 225.08 402.77 223.33C403.43 221.66 404.57 220.23 406.04 219.22C406.75 218.77 407.55 218.47 408.38 218.36C409.16 218.27 409.95 218.36 410.7 218.62C412.01 219.08 413.15 219.94 413.97 221.08C415.12 222.71 415.84 224.62 416.06 226.62C416.12 227.16 416.15 227.7 416.15 228.23C416.19 228.47 416.19 228.7 416.15 228.94Z" fill="#263238" fill-opacity="1.000000" fill-rule="nonzero"/>
		</g>
	</g>
</svg>
